<?xml version="1.0" encoding="UTF-8"?><svg id="Camada_2" xmlns="http://www.w3.org/2000/svg" viewBox="0 0 46.13 46.13"><defs><style>.cls-1{fill:#ae8576;}.cls-2{fill:#e6d3cf;}</style></defs><g id="Camada_1-2"><g><rect class="cls-2" x="0" y="0" width="46.13" height="46.13" rx="5" ry="5"/><g><path class="cls-1" d="M23.07,10.42c-5.37,0-9.74,4.37-9.74,9.74,0,5.05,7.98,13.78,8.89,14.76l.85,.92,.85-.92c.91-.98,8.89-9.71,8.89-14.76,0-5.37-4.37-9.74-9.74-9.74Zm0,21.96c-2.65-3.03-7.41-9.09-7.41-12.22,0-4.08,3.32-7.41,7.41-7.41s7.41,3.32,7.41,7.41c0,3.13-4.75,9.19-7.41,12.22Z"/><path class="cls-1" d="M23.07,15.18c-2.52,0-4.56,2.05-4.56,4.56s2.05,4.56,4.56,4.56,4.56-2.05,4.56-4.56-2.05-4.56-4.56-4.56Zm0,6.79c-1.23,0-2.23-1-2.23-2.23s1-2.23,2.23-2.23,2.23,1,2.23,2.23-1,2.23-2.23,2.23Z"/></g></g></g></svg>