<?xml version="1.0" encoding="UTF-8"?><svg id="Camada_2" xmlns="http://www.w3.org/2000/svg" xmlns:xlink="http://www.w3.org/1999/xlink" viewBox="0 0 46.13 46.13"><defs><style>.cls-1{clip-path:url(#clippath-1);}.cls-2{fill:#ad8576;}.cls-3{clip-path:url(#clippath);}.cls-4{fill:none;}.cls-5{fill:#e6d3cf;}</style><clipPath id="clippath"><rect class="cls-4" x="10.62" y="10.88" width="24.89" height="24.37"/></clipPath><clipPath id="clippath-1"><rect class="cls-4" x="10.62" y="10.88" width="24.89" height="24.37"/></clipPath></defs><g id="Camada_1-2"><path class="cls-5" d="M41.13,46.13H5c-2.76,0-5-2.24-5-5V5C0,2.24,2.24,0,5,0H41.13c2.76,0,5,2.24,5,5V41.13c0,2.76-2.24,5-5,5"/><g id="Objeto_Inteligente_de_Vetor"><g class="cls-3"><g class="cls-1"><path class="cls-2" d="M23.07,35.25c-2.18,0-4.32-.56-6.21-1.64l-4.85,1.64,1-5.03c-1.56-2.1-2.39-4.56-2.39-7.16,0-6.72,5.58-12.19,12.45-12.19s12.45,5.47,12.45,12.19-5.58,12.19-12.45,12.19m-5.98-3.63l.38,.23c1.69,1.04,3.63,1.59,5.61,1.59,5.84,0,10.59-4.65,10.59-10.37s-4.75-10.37-10.59-10.37-10.59,4.65-10.59,10.37c0,2.33,.78,4.53,2.25,6.38l.26,.33-.54,2.75,2.64-.89Z"/><path class="cls-2" d="M16.78,18.38s.73-1.25,1.32-1.32c.6-.07,1.36-.07,1.57,.31,.21,.38,1.13,2.6,1.13,2.6,0,0,.16,.38-.09,.75-.24,.37-.79,.9-.79,.9,0,0-.3,.38,0,.79,.3,.4,.78,1.15,1.75,2.1,.97,.95,2.84,1.63,2.84,1.63,0,0,.27,.04,.44-.13,.17-.17,1.09-1.3,1.09-1.3,0,0,.3-.38,.79-.16,.49,.22,2.63,1.26,2.63,1.26,0,0,.25,.09,.25,.46s-.15,1.27-.47,1.58c-.31,.31-1.22,1.25-2.59,1.25s-4.63-1.09-6.37-2.79c-1.74-1.7-3.28-3.43-3.65-5-.36-1.57-.32-2.28,.13-2.93"/></g></g></g></g></svg>