<?xml version="1.0" encoding="UTF-8"?><svg id="Camada_2" xmlns="http://www.w3.org/2000/svg" viewBox="0 0 46.13 46.13"><defs><style>.cls-1{fill:#ae8576;}.cls-2{fill:#e6d3cf;}</style></defs><g id="Camada_1-2"><g><rect class="cls-2" x="0" y="0" width="46.13" height="46.13" rx="5" ry="5"/><g><path class="cls-1" d="M29.8,14.96c-.82,0-1.49,.67-1.49,1.49s.67,1.49,1.49,1.49,1.49-.67,1.49-1.49-.67-1.49-1.49-1.49Z"/><path class="cls-1" d="M23.17,16.87c-3.45,0-6.26,2.81-6.26,6.26s2.81,6.26,6.26,6.26,6.26-2.81,6.26-6.26-2.81-6.26-6.26-6.26Zm0,10.27c-2.21,0-4.01-1.8-4.01-4.01s1.8-4.01,4.01-4.01,4.01,1.8,4.01,4.01-1.8,4.01-4.01,4.01Z"/><path class="cls-1" d="M28.14,35.84h-10.15c-4.21,0-7.63-3.43-7.63-7.64v-10.15c0-4.21,3.42-7.64,7.63-7.64h10.15c4.21,0,7.64,3.42,7.64,7.64v10.15c0,4.21-3.43,7.64-7.64,7.64ZM17.99,12.81c-2.89,0-5.24,2.35-5.24,5.24v10.15c0,2.89,2.35,5.24,5.24,5.24h10.15c2.89,0,5.24-2.35,5.24-5.24v-10.15c0-2.89-2.35-5.24-5.24-5.24h-10.15Z"/></g></g></g></svg>